<svg width="24" height="26" viewBox="0 0 24 26" fill="none" xmlns="http://www.w3.org/2000/svg">
<path d="M13.8742 22.7503C13.6837 23.0787 13.4103 23.3512 13.0814 23.5407C12.7525 23.7301 12.3796 23.8298 12 23.8298C11.6204 23.8298 11.2475 23.7301 10.9186 23.5407C10.5897 23.3512 10.3163 23.0787 10.1258 22.7503M18.5 8.66699C18.5 6.94309 17.8152 5.28978 16.5962 4.0708C15.3772 2.85181 13.7239 2.16699 12 2.16699C10.2761 2.16699 8.62279 2.85181 7.40381 4.0708C6.18482 5.28978 5.5 6.94309 5.5 8.66699C5.5 16.2503 2.25 18.417 2.25 18.417H21.75C21.75 18.417 18.5 16.2503 18.5 8.66699Z" stroke="#D77272" stroke-width="4" stroke-linecap="round" stroke-linejoin="round"/>
</svg>
