<svg width="29" height="28" viewBox="0 0 29 28" fill="none" xmlns="http://www.w3.org/2000/svg">
<path d="M24.2334 4.27145C24.2309 4.2496 24.2264 4.22801 24.2199 4.20697C24.2135 4.18689 24.2049 4.16758 24.1941 4.14939C24.1846 4.13145 24.173 4.11465 24.1596 4.0993C24.1449 4.08241 24.1284 4.06716 24.1104 4.05382C24.1004 4.04634 24.0945 4.03597 24.0834 4.02964L14.4411 4.01367C14.3843 3.98251 14.3202 4.01367 14.2551 4.01367C14.19 4.01367 14.1259 3.98251 14.0691 4.01367L4.55645 4.03194C4.54531 4.03827 4.53945 4.04864 4.52949 4.05612C4.51143 4.06946 4.49493 4.08471 4.48027 4.10161C4.46684 4.11695 4.45524 4.13376 4.4457 4.1517C4.43495 4.16988 4.4263 4.1892 4.41992 4.20927C4.41335 4.2303 4.40884 4.25189 4.40645 4.27375C4.40348 4.28553 4.40114 4.29744 4.39941 4.30945V18.0641C4.39949 18.1208 4.41474 18.1765 4.44363 18.2256C4.47253 18.2747 4.51406 18.3155 4.56406 18.3439L14.1441 23.791C14.194 23.8194 14.2506 23.8343 14.3082 23.8342H14.3357C14.3935 23.8343 14.4503 23.8194 14.5004 23.791L24.0758 18.3416C24.1258 18.3132 24.1673 18.2724 24.1962 18.2233C24.2251 18.1742 24.2404 18.1185 24.2404 18.0618V4.30715C24.2387 4.29514 24.2364 4.28323 24.2334 4.27145ZM7.69062 4.63072H20.9498V16.3846L14.3199 20.1563L7.69062 16.3846V4.63072ZM23.5824 17.8729L14.3199 23.145L5.05742 17.8752V4.63302H7.03262V16.5711C7.03269 16.6279 7.04794 16.6836 7.07684 16.7327C7.10574 16.7818 7.14727 16.8226 7.19727 16.851L14.1559 20.8098C14.2058 20.8385 14.2626 20.8536 14.3205 20.8536C14.3784 20.8536 14.4352 20.8385 14.4852 20.8098L21.4437 16.851C21.4937 16.8226 21.5353 16.7818 21.5642 16.7327C21.5931 16.6836 21.6083 16.6279 21.6084 16.5711V4.63072H23.5824V17.8729Z" fill="black"/>
<path d="M14.0641 14.3129L12.1796 14.3086C12.1074 14.3086 12.0381 14.3367 11.987 14.3868C11.9358 14.4369 11.907 14.5049 11.9067 14.5758L11.8994 17.7441C11.8993 17.8152 11.9279 17.8834 11.9788 17.9338C12.0298 17.9841 12.0991 18.0126 12.1714 18.0128C12.2436 18.0128 12.3128 17.9847 12.3639 17.9346C12.415 17.8845 12.4437 17.8165 12.4439 17.7456L12.4473 16.4093H13.2515C13.3219 16.4064 13.3883 16.3769 13.437 16.327C13.4858 16.277 13.513 16.2105 13.513 16.1414C13.513 16.0722 13.4858 16.0057 13.437 15.9558C13.3883 15.9058 13.3219 15.8763 13.2515 15.8734H12.4468L12.4492 14.8459L14.0607 14.8498C14.131 14.8468 14.1975 14.8173 14.2462 14.7674C14.2949 14.7175 14.3221 14.651 14.3221 14.5818C14.3221 14.5126 14.2949 14.4461 14.2462 14.3962C14.1975 14.3463 14.131 14.3168 14.0607 14.3138L14.0641 14.3129Z" fill="black"/>
<path d="M16.0099 18.0216H16.0128C16.5922 18.0216 17.1143 17.6245 17.3756 16.9851C17.3897 16.9523 17.3971 16.9171 17.3972 16.8815C17.3974 16.8459 17.3903 16.8106 17.3764 16.7777C17.3625 16.7449 17.3421 16.715 17.3163 16.69C17.2905 16.665 17.2599 16.6453 17.2263 16.632C17.1927 16.6188 17.1567 16.6122 17.1205 16.6128C17.0843 16.6133 17.0485 16.621 17.0153 16.6353C16.9822 16.6496 16.9522 16.6702 16.9273 16.696C16.9023 16.7218 16.8828 16.7523 16.87 16.7856C16.6932 17.2175 16.3649 17.4857 16.0128 17.4857C15.7636 17.4857 15.5271 17.3549 15.3416 17.1192C15.1415 16.8619 15.0322 16.5164 15.0327 16.1466C15.0327 15.4102 15.4761 14.8103 16.0172 14.8103C16.3703 14.8103 16.6971 15.0809 16.8729 15.5142C16.8861 15.547 16.9057 15.5768 16.9306 15.6021C16.9555 15.6273 16.9852 15.6475 17.0181 15.6615C17.0509 15.6755 17.0863 15.683 17.1221 15.6836C17.1579 15.6841 17.1934 15.6777 17.2267 15.6648C17.26 15.6519 17.2904 15.6326 17.3161 15.6081C17.3418 15.5837 17.3624 15.5544 17.3766 15.5222C17.3909 15.4899 17.3985 15.4552 17.399 15.42C17.3996 15.3848 17.3931 15.3499 17.38 15.3171C17.1206 14.6748 16.599 14.2758 16.0201 14.2744H16.0172C15.176 14.2744 14.4892 15.1124 14.4873 16.1437C14.4873 16.6314 14.6354 17.0929 14.9084 17.4432C15.1978 17.8149 15.5903 18.0216 16.0099 18.0216Z" fill="black"/>
<path fill-rule="evenodd" clip-rule="evenodd" d="M13.7402 6.19321C13.9534 6.15112 14.1739 6.12906 14.3994 6.12906C14.6249 6.12906 14.8452 6.1511 15.0584 6.19316L14.3993 6.67148L13.7402 6.19321ZM11.0535 11.7064C11.7682 12.7949 12.9999 13.5137 14.3994 13.5137C15.7991 13.5137 17.0309 12.7947 17.7456 11.706C17.7635 11.685 17.7787 11.6615 17.7904 11.6362C18.1301 11.0947 18.3437 10.466 18.3899 9.79138C18.3952 9.7642 18.3968 9.73658 18.3947 9.70929C18.3978 9.64447 18.3994 9.57926 18.3994 9.51367C18.3994 7.30453 16.6086 5.51367 14.3994 5.51367C13.1594 5.51367 12.0513 6.07788 11.3176 6.96357C11.3107 6.97114 11.3042 6.97903 11.2981 6.98722C10.7363 7.67602 10.3994 8.5555 10.3994 9.51367C10.3994 9.57802 10.4009 9.64202 10.4039 9.70563C10.4013 9.73531 10.403 9.76542 10.4092 9.79496C10.4559 10.468 10.6692 11.0953 11.0081 11.6357C11.02 11.6614 11.0353 11.6852 11.0535 11.7064ZM17.7606 9.11316C17.7075 8.66253 17.5658 8.239 17.3535 7.86044L17.1031 8.63415L17.7606 9.11316ZM16.9072 7.24066C16.5957 6.89718 16.2146 6.61798 15.7862 6.4253L14.7071 7.2084V7.74141L15.9886 8.67279L16.4971 8.50813L16.9072 7.24066ZM16.6881 9.09314L16.1778 9.25837L15.6899 10.7669L16.003 11.1989H17.3353C17.5636 10.8021 17.7137 10.3547 17.7647 9.87755L16.6881 9.09314ZM15.5048 11.5601L15.1921 11.1286H13.6073L13.2941 11.5607L13.7071 12.8274C13.9306 12.8739 14.1622 12.8983 14.3994 12.8983C14.6366 12.8983 14.8682 12.8739 15.0916 12.8274L15.5048 11.5601ZM15.817 12.588C16.2214 12.4012 16.5827 12.137 16.8819 11.8143H16.0692L15.817 12.588ZM11.9169 11.8143C12.2161 12.137 12.5774 12.4012 12.9818 12.588L12.7295 11.8143H11.9169ZM12.7963 11.1989L13.1086 10.7681L12.6202 9.25803L12.1105 9.09298L11.0341 9.87723C11.0851 10.3545 11.2352 10.802 11.4635 11.1989H12.7963ZM11.445 7.86098C11.233 8.2393 11.0914 8.66251 11.0383 9.11278L11.6952 8.63415L11.445 7.86098ZM11.8912 7.24105L12.3012 8.50787L12.8098 8.67258L14.0918 7.74085V7.20868L13.0124 6.42538C12.5839 6.61813 12.2028 6.89744 11.8912 7.24105ZM13.6729 10.5133L13.2259 9.13093L14.3991 8.27825L15.5722 9.13093L15.1252 10.5133H13.6729Z" fill="black"/>
</svg>
