<svg width="17" height="25" viewBox="0 0 17 25" fill="none" xmlns="http://www.w3.org/2000/svg">
<path d="M8.57091 0.562633C7.69551 0.562633 6.81954 0.775933 6.02283 1.19696C5.835 1.29604 5.75943 1.52614 5.85194 1.7173C6.51533 3.09389 6.97087 4.72854 7.41465 6.19452C7.46487 6.36085 7.6181 6.47475 7.79187 6.47483H9.35765C9.53555 6.47475 9.69136 6.35553 9.73795 6.18384C9.73795 6.18384 10.6132 3.00876 11.2868 1.71889C11.3872 1.52623 11.3128 1.28875 11.1205 1.18777C10.3222 0.769897 9.44631 0.560899 8.57091 0.562633ZM8.57249 1.35092C9.21055 1.35092 9.81458 1.46254 10.4123 1.72197C9.75487 3.20828 9.14063 5.37194 9.05593 5.68654H8.08597C7.71235 4.44034 7.30658 3.00666 6.74803 1.73886C7.34429 1.47754 7.93502 1.35218 8.57249 1.35092Z" fill="black"/>
<path fill-rule="evenodd" clip-rule="evenodd" d="M1.08301 16.7625V20.2697C1.08295 20.3375 1.10034 20.404 1.13351 20.4631C1.16668 20.5221 1.21451 20.5716 1.27238 20.6068L8.36695 24.9424C8.42867 24.9799 8.4995 24.9997 8.57173 24.9997C8.64395 24.9997 8.71479 24.9799 8.7765 24.9424L15.8711 20.6068C15.929 20.5716 15.9768 20.5221 16.0099 20.4631C16.0431 20.404 16.0605 20.3375 16.0604 20.2697V16.7625H15.2722V20.0495L8.57173 24.1434L1.87129 20.0495V16.7625H1.08301Z" fill="black"/>
<path fill-rule="evenodd" clip-rule="evenodd" d="M8.56885 7.26297C8.53126 7.26344 8.49393 7.26926 8.458 7.28029L0.575135 9.64515C0.494192 9.6696 0.423256 9.71943 0.372799 9.78728C0.322342 9.85513 0.29504 9.93742 0.294922 10.022V16.3283C0.2948 16.3991 0.313751 16.4685 0.349784 16.5295C0.385817 16.5904 0.437601 16.6406 0.499696 16.6746L8.38256 21.0102C8.44061 21.042 8.50574 21.0587 8.57193 21.0587C8.63812 21.0587 8.70325 21.042 8.7613 21.0102L16.6442 16.6746C16.7063 16.6406 16.758 16.5904 16.7941 16.5295C16.8301 16.4685 16.8491 16.3991 16.8489 16.3283V10.022C16.8489 9.93735 16.8216 9.85492 16.7712 9.78699C16.7207 9.71906 16.6497 9.66923 16.5687 9.64477L8.68586 7.27991C8.64795 7.26827 8.6085 7.26283 8.56885 7.26297ZM8.572 8.0682L16.0607 10.3159V16.0958L8.572 20.2143L1.08328 16.0958V10.3159L8.572 8.0682Z" fill="black"/>
<path fill-rule="evenodd" clip-rule="evenodd" d="M8.56576 9.22925C8.46149 9.23088 8.36212 9.27383 8.2894 9.34857C8.21668 9.42332 8.17654 9.52383 8.17777 9.62811V18.6934C8.17704 18.7456 8.18668 18.7975 8.20616 18.8459C8.22564 18.8944 8.25455 18.9384 8.29122 18.9756C8.3279 19.0128 8.3716 19.0424 8.41978 19.0625C8.46797 19.0827 8.51968 19.0931 8.57192 19.0931C8.62415 19.0931 8.67586 19.0827 8.72405 19.0625C8.77224 19.0424 8.81594 19.0128 8.85261 18.9756C8.88928 18.9384 8.9182 18.8944 8.93767 18.8459C8.95715 18.7975 8.9668 18.7456 8.96606 18.6934V9.62811C8.96668 9.57544 8.95674 9.5231 8.93683 9.47434C8.91691 9.42557 8.88743 9.38132 8.85011 9.34414C8.81279 9.30697 8.7684 9.27766 8.71956 9.25793C8.67073 9.23819 8.61843 9.22843 8.56576 9.22925Z" fill="black"/>
<path fill-rule="evenodd" clip-rule="evenodd" d="M10.5365 9.62802C10.4847 9.62883 10.4336 9.6398 10.3861 9.66036C10.3386 9.68091 10.2956 9.71056 10.2596 9.74773C10.2235 9.7849 10.1952 9.82883 10.1761 9.87696C10.1571 9.92509 10.1477 9.97647 10.1485 10.0282V17.9003C10.1477 17.9525 10.1574 18.0044 10.1769 18.0528C10.1964 18.1013 10.2253 18.1454 10.2619 18.1826C10.2986 18.2198 10.3423 18.2494 10.3905 18.2695C10.4387 18.2897 10.4904 18.3 10.5426 18.3C10.5949 18.3 10.6466 18.2897 10.6948 18.2695C10.7429 18.2494 10.7866 18.2198 10.8233 18.1826C10.86 18.1454 10.8889 18.1013 10.9084 18.0528C10.9279 18.0044 10.9375 17.9525 10.9368 17.9003V10.0282C10.9376 9.97543 10.9278 9.92301 10.908 9.87407C10.8882 9.82514 10.8587 9.78074 10.8214 9.7434C10.784 9.70606 10.7396 9.67662 10.6906 9.6568C10.6417 9.63697 10.5893 9.6272 10.5365 9.62802Z" fill="black"/>
<path fill-rule="evenodd" clip-rule="evenodd" d="M12.5072 10.4158C12.4554 10.4166 12.4043 10.4276 12.3568 10.4481C12.3093 10.4687 12.2663 10.4983 12.2303 10.5355C12.1942 10.5727 12.1659 10.6166 12.1468 10.6647C12.1278 10.7129 12.1184 10.7642 12.1192 10.816V16.3279C12.1185 16.3802 12.1281 16.432 12.1476 16.4805C12.1671 16.5289 12.196 16.573 12.2326 16.6102C12.2693 16.6474 12.313 16.6769 12.3612 16.6971C12.4094 16.7172 12.4611 16.7277 12.5133 16.7277C12.5656 16.7277 12.6173 16.7172 12.6655 16.6971C12.7137 16.6769 12.7574 16.6474 12.794 16.6102C12.8307 16.573 12.8596 16.5289 12.8791 16.4805C12.8986 16.432 12.9082 16.3802 12.9075 16.3279V10.816C12.9083 10.7632 12.8985 10.7108 12.8787 10.6618C12.8589 10.6129 12.8294 10.5685 12.7921 10.5312C12.7547 10.4938 12.7103 10.4644 12.6613 10.4446C12.6124 10.4247 12.56 10.415 12.5072 10.4158Z" fill="black"/>
<path fill-rule="evenodd" clip-rule="evenodd" d="M14.4779 11.2047C14.4261 11.2055 14.375 11.2164 14.3275 11.237C14.28 11.2575 14.237 11.2872 14.201 11.3244C14.165 11.3615 14.1366 11.4055 14.1175 11.4536C14.0985 11.5017 14.0891 11.5531 14.0899 11.6049V15.5355C14.0892 15.5877 14.0988 15.6396 14.1183 15.688C14.1378 15.7365 14.1667 15.7806 14.2033 15.8178C14.24 15.855 14.2837 15.8846 14.3319 15.9047C14.3801 15.9249 14.4318 15.9352 14.484 15.9352C14.5363 15.9352 14.588 15.9249 14.6362 15.9047C14.6844 15.8846 14.7281 15.855 14.7647 15.8178C14.8014 15.7806 14.8303 15.7365 14.8498 15.688C14.8693 15.6396 14.8789 15.5877 14.8782 15.5355V11.6049C14.879 11.5521 14.8692 11.4996 14.8494 11.4507C14.8296 11.4018 14.8001 11.3574 14.7628 11.32C14.7254 11.2827 14.681 11.2532 14.632 11.2334C14.5831 11.2136 14.5307 11.2038 14.4779 11.2047Z" fill="black"/>
<path fill-rule="evenodd" clip-rule="evenodd" d="M6.59507 9.62802C6.54331 9.62883 6.49221 9.6398 6.4447 9.66036C6.39719 9.68091 6.3542 9.71056 6.31817 9.74773C6.28214 9.7849 6.25379 9.82883 6.23473 9.87696C6.21566 9.92509 6.20627 9.97647 6.20708 10.0282V17.9003C6.20634 17.9525 6.21599 18.0044 6.23547 18.0528C6.25494 18.1013 6.28386 18.1454 6.32053 18.1826C6.3572 18.2198 6.4009 18.2494 6.44909 18.2695C6.49728 18.2897 6.54899 18.3 6.60122 18.3C6.65346 18.3 6.70517 18.2897 6.75335 18.2695C6.80154 18.2494 6.84524 18.2198 6.88191 18.1826C6.91859 18.1454 6.9475 18.1013 6.96698 18.0528C6.98645 18.0044 6.9961 17.9525 6.99537 17.9003V10.0282C6.99619 9.97543 6.9864 9.92301 6.96657 9.87407C6.94675 9.82514 6.91729 9.78074 6.87996 9.7434C6.84262 9.70606 6.79816 9.67662 6.74922 9.6568C6.70028 9.63697 6.64786 9.6272 6.59507 9.62802Z" fill="black"/>
<path fill-rule="evenodd" clip-rule="evenodd" d="M4.62436 10.4158C4.5726 10.4166 4.52151 10.4276 4.474 10.4481C4.42649 10.4687 4.38349 10.4983 4.34747 10.5355C4.31144 10.5727 4.28308 10.6166 4.26402 10.6647C4.24496 10.7129 4.23557 10.7642 4.23638 10.816V16.3279C4.23564 16.3802 4.24529 16.432 4.26476 16.4805C4.28424 16.5289 4.31315 16.573 4.34983 16.6102C4.3865 16.6474 4.4302 16.6769 4.47839 16.6971C4.52657 16.7172 4.57829 16.7277 4.63052 16.7277C4.68275 16.7277 4.73447 16.7172 4.78265 16.6971C4.83084 16.6769 4.87454 16.6474 4.91121 16.6102C4.94789 16.573 4.9768 16.5289 4.99628 16.4805C5.01575 16.432 5.0254 16.3802 5.02466 16.3279V10.816C5.02549 10.7632 5.0157 10.7108 4.99587 10.6618C4.97605 10.6129 4.94659 10.5685 4.90925 10.5312C4.87192 10.4938 4.82746 10.4644 4.77852 10.4446C4.72958 10.4247 4.67716 10.415 4.62436 10.4158Z" fill="black"/>
<path fill-rule="evenodd" clip-rule="evenodd" d="M2.65366 11.2047C2.6019 11.2055 2.55081 11.2164 2.5033 11.237C2.45579 11.2575 2.41279 11.2872 2.37676 11.3244C2.34073 11.3615 2.31238 11.4055 2.29332 11.4536C2.27426 11.5017 2.26486 11.5531 2.26567 11.6049V15.5355C2.26493 15.5877 2.27458 15.6396 2.29406 15.688C2.31354 15.7365 2.34245 15.7806 2.37912 15.8178C2.4158 15.855 2.4595 15.8846 2.50768 15.9047C2.55587 15.9249 2.60758 15.9352 2.65982 15.9352C2.71205 15.9352 2.76376 15.9249 2.81195 15.9047C2.86014 15.8846 2.90384 15.855 2.94051 15.8178C2.97718 15.7806 3.0061 15.7365 3.02557 15.688C3.04505 15.6396 3.0547 15.5877 3.05396 15.5355V11.6049C3.05478 11.5521 3.04499 11.4996 3.02517 11.4507C3.00534 11.4018 2.97589 11.3574 2.93855 11.32C2.90121 11.2827 2.85676 11.2532 2.80782 11.2334C2.75888 11.2136 2.70646 11.2038 2.65366 11.2047Z" fill="black"/>
<path d="M10.584 2.4145L10.373 3.17358C13.3314 3.99907 15.3475 6.72512 15.2706 9.79549L16.0573 9.81512C16.1431 6.38773 13.8863 3.33601 10.584 2.4145Z" fill="black"/>
<path d="M6.82315 2.34679C3.39703 3.17007 1.00444 6.27583 1.08498 9.7986L1.87327 9.78196C1.80114 6.62574 3.93669 3.85153 7.00637 3.11386L6.82315 2.34679Z" fill="black"/>
<path fill-rule="evenodd" clip-rule="evenodd" d="M7.77766 0.755279C7.72257 0.756004 7.66824 0.768297 7.61818 0.791316C7.56812 0.814334 7.52344 0.847587 7.48703 0.888937C7.45061 0.930288 7.42327 0.978831 7.40677 1.0314C7.39027 1.08397 7.38497 1.13938 7.39121 1.19412L7.58829 3.16488C7.59346 3.21645 7.60873 3.26645 7.63324 3.31211C7.65775 3.35777 7.69101 3.39815 7.73113 3.43095C7.77125 3.46375 7.81744 3.48836 7.86705 3.50331C7.91667 3.51826 7.96875 3.52331 8.02031 3.51813C8.07187 3.51295 8.12191 3.49761 8.16756 3.4731C8.21322 3.44858 8.2536 3.41536 8.2864 3.37523C8.31919 3.33511 8.34377 3.28889 8.35871 3.23927C8.37366 3.18965 8.37868 3.13754 8.3735 3.08598L8.17643 1.11531C8.16787 1.01595 8.12197 0.923518 8.04797 0.856653C7.97398 0.789789 7.87738 0.753752 7.77766 0.755279Z" fill="black"/>
<path fill-rule="evenodd" clip-rule="evenodd" d="M9.35405 0.754944C9.25646 0.756499 9.16291 0.794229 9.09152 0.860793C9.02013 0.927357 8.97598 1.01802 8.9676 1.11526L8.77053 3.08603C8.76535 3.13759 8.77038 3.1896 8.78532 3.23922C8.80027 3.28884 8.82484 3.33507 8.85763 3.37519C8.89043 3.41531 8.93081 3.44853 8.97647 3.47305C9.02212 3.49757 9.07216 3.51291 9.12372 3.51808C9.17528 3.52326 9.22736 3.51822 9.27698 3.50327C9.32659 3.48831 9.37278 3.4637 9.4129 3.4309C9.45302 3.3981 9.48628 3.35772 9.51079 3.31206C9.5353 3.2664 9.55058 3.2164 9.55575 3.16484L9.75282 1.19412C9.75919 1.13834 9.75357 1.08185 9.73634 1.02842C9.71911 0.97499 9.69066 0.925868 9.65291 0.88432C9.61516 0.842772 9.56896 0.809769 9.51742 0.787516C9.46588 0.765264 9.41018 0.753929 9.35405 0.754944Z" fill="black"/>
</svg>
