<svg width="28" height="28" viewBox="0 0 28 28" fill="none" xmlns="http://www.w3.org/2000/svg">
<path fill-rule="evenodd" clip-rule="evenodd" d="M24 7H14.9999V10.0309C16.9731 10.277 18.5 11.9602 18.5 14C18.5 16.0398 16.9731 17.723 14.9999 17.9691V21H24V18H19.9997V10H24V7ZM14.9999 16.9585C16.4188 16.7205 17.5 15.4865 17.5 14C17.5 12.5135 16.4188 11.2795 14.9999 11.0415L14.9999 16.9585ZM13.9999 11.0415L13.9999 16.9585C12.5811 16.7204 11.5 15.4865 11.5 14C11.5 12.5135 12.5811 11.2796 13.9999 11.0415ZM13.9999 10.031C12.0268 10.277 10.5 11.9602 10.5 14C10.5 16.0398 12.0268 17.723 13.9999 17.969V21H5V18H9V10H5V7L13.9999 7V10.031ZM5 17V11H8V17H5ZM4 6V10V18V22H25V6H4ZM20.9997 11H23.9997V17H20.9997V11Z" fill="black"/>
</svg>
