<svg width="28" height="28" viewBox="0 0 28 28" fill="none" xmlns="http://www.w3.org/2000/svg">
<path d="M16.0568 18.3039V17.3999C17.1165 17.136 18.0577 16.5259 18.7313 15.6665C19.405 14.807 19.7725 13.7472 19.7755 12.6552V5.75966C19.7744 4.83625 19.4071 3.951 18.7541 3.29805C18.1012 2.6451 17.2159 2.27777 16.2925 2.27661H8.53125C8.44983 2.27661 8.37174 2.30892 8.31412 2.36644C8.2565 2.42396 8.22405 2.50199 8.22391 2.58341V9.3056C8.20802 9.34314 8.19984 9.3835 8.19984 9.42427C8.19984 9.46504 8.20802 9.50539 8.22391 9.54294V12.6552C8.22679 13.7473 8.5942 14.8071 9.26787 15.6666C9.94155 16.5262 10.8829 17.1362 11.9427 17.3999V18.3039C8.88945 18.4521 6.45312 20.8025 6.45312 23.6709V25.4165C6.45647 25.4957 6.49028 25.5706 6.5475 25.6254C6.60472 25.6803 6.68093 25.7109 6.7602 25.7109C6.83946 25.7109 6.91567 25.6803 6.97289 25.6254C7.03011 25.5706 7.06392 25.4957 7.06727 25.4165V23.6709C7.06727 21.0459 9.39148 18.9131 12.2478 18.9131C12.2539 18.9121 12.2599 18.9109 12.2659 18.9093L13.7813 20.4837C13.8099 20.5136 13.8443 20.5374 13.8823 20.5536C13.9204 20.5699 13.9614 20.5782 14.0027 20.5782C14.0441 20.5782 14.0851 20.5699 14.1231 20.5536C14.1612 20.5374 14.1956 20.5136 14.2242 20.4837L15.7347 18.9065C15.7406 18.9081 15.7467 18.9094 15.7527 18.9104C18.6091 18.9104 20.9333 21.0432 20.9333 23.6682V25.4138C20.9366 25.493 20.9704 25.5678 21.0277 25.6227C21.0849 25.6776 21.1611 25.7082 21.2404 25.7082C21.3196 25.7082 21.3958 25.6776 21.453 25.6227C21.5103 25.5678 21.5441 25.493 21.5474 25.4138V23.6709C21.5469 20.8025 19.1105 18.4521 16.0568 18.3039ZM16.2936 2.89075C17.0542 2.89162 17.7834 3.19416 18.3213 3.73199C18.8591 4.26983 19.1616 4.99904 19.1625 5.75966V8.8506C17.354 8.68981 17.1894 7.22747 17.1839 7.16239C17.1785 7.08487 17.1439 7.01229 17.087 6.9593C17.0302 6.90632 16.9554 6.87687 16.8777 6.87692H16.8662C16.7867 6.87976 16.7115 6.91333 16.6563 6.97056C16.6011 7.02779 16.5703 7.10421 16.5703 7.18372C16.5703 8.45302 12.2806 9.11692 9.98047 9.11692H8.8375V2.89075H16.2936ZM14 19.8275L12.5573 18.3203V17.1718C12.5509 17.1407 12.5445 17.1095 12.5382 17.0783C12.5327 17.0612 12.5257 17.0446 12.5174 17.0286C12.5075 17.0092 12.4956 16.9908 12.4819 16.9739C12.4707 16.961 12.4586 16.949 12.4458 16.9378C12.4289 16.9236 12.4105 16.9111 12.3911 16.9006C12.3759 16.8931 12.3602 16.8867 12.3441 16.8815C12.3328 16.8756 12.3211 16.8707 12.3091 16.8667C11.3323 16.6754 10.4523 16.151 9.81924 15.383C9.18619 14.615 8.83938 13.651 8.83805 12.6558V9.73435H9.98102C10.0434 9.73435 15.3841 9.65231 16.8284 8.0538C17.1292 8.66192 17.7855 9.38161 19.163 9.47895V12.6579C19.1615 13.6532 18.8146 14.617 18.1816 15.385C17.5486 16.1529 16.6687 16.6774 15.692 16.8689C15.68 16.8729 15.6683 16.8778 15.657 16.8836C15.6409 16.8889 15.6252 16.8953 15.61 16.9028C15.5906 16.9133 15.5722 16.9258 15.5553 16.94C15.5425 16.9512 15.5304 16.9632 15.5192 16.9761C15.5055 16.9929 15.4938 17.0112 15.4842 17.0308C15.4753 17.0467 15.4682 17.0636 15.4629 17.0811C15.4565 17.101 15.4523 17.1215 15.4503 17.1423C15.4475 17.1528 15.4454 17.1633 15.4438 17.174V18.3225L14 19.8275Z" fill="black"/>
<path d="M12.3792 11.294C12.4197 11.2942 12.4598 11.2863 12.4972 11.2709C12.5346 11.2556 12.5686 11.2329 12.5973 11.2044C12.6259 11.1758 12.6486 11.1419 12.6642 11.1045C12.6797 11.0672 12.6877 11.0271 12.6877 10.9867V10.0138C12.6894 9.97237 12.6828 9.93103 12.6681 9.89225C12.6535 9.85347 12.6311 9.81806 12.6024 9.78813C12.5738 9.75821 12.5393 9.7344 12.5012 9.71813C12.4631 9.70187 12.422 9.69348 12.3806 9.69348C12.3391 9.69348 12.2981 9.70187 12.26 9.71813C12.2219 9.7344 12.1874 9.75821 12.1587 9.78813C12.13 9.81806 12.1077 9.85347 12.0931 9.89225C12.0784 9.93103 12.0718 9.97237 12.0735 10.0138V10.9867C12.0735 11.0679 12.1057 11.1458 12.163 11.2034C12.2202 11.261 12.298 11.2936 12.3792 11.294Z" fill="black"/>
<path d="M15.6205 11.294C15.7021 11.294 15.7802 11.2616 15.8379 11.204C15.8955 11.1464 15.9279 11.0682 15.9279 10.9867V10.0138C15.9296 9.97237 15.923 9.93103 15.9083 9.89225C15.8937 9.85347 15.8714 9.81806 15.8427 9.78813C15.814 9.75821 15.7796 9.7344 15.7414 9.71813C15.7033 9.70187 15.6623 9.69348 15.6208 9.69348C15.5794 9.69348 15.5383 9.70187 15.5002 9.71813C15.4621 9.7344 15.4276 9.75821 15.399 9.78813C15.3703 9.81806 15.3479 9.85347 15.3333 9.89225C15.3186 9.93103 15.312 9.97237 15.3138 10.0138V10.9867C15.3137 11.0681 15.3461 11.1462 15.4036 11.2038C15.4611 11.2614 15.5391 11.2939 15.6205 11.294Z" fill="black"/>
<path d="M16.4403 13.2382C16.4742 13.1651 16.4778 13.0816 16.4505 13.0058C16.4231 12.93 16.367 12.8681 16.2942 12.8335C16.2208 12.7993 16.137 12.795 16.0605 12.8217C15.984 12.8484 15.9209 12.9038 15.8846 12.9762C15.8688 13.0107 15.4597 13.8036 13.9996 13.8036C12.5394 13.8036 12.1303 13.0107 12.1156 12.9795C12.0986 12.9429 12.0746 12.9101 12.0449 12.8828C12.0152 12.8555 11.9804 12.8344 11.9426 12.8205C11.9047 12.8067 11.8645 12.8005 11.8242 12.8022C11.784 12.8039 11.7444 12.8135 11.7079 12.8305C11.6713 12.8474 11.6385 12.8715 11.6112 12.9011C11.5839 12.9308 11.5628 12.9656 11.5489 13.0034C11.5351 13.0413 11.5288 13.0815 11.5305 13.1218C11.5323 13.1621 11.5419 13.2016 11.5589 13.2382C11.5802 13.2857 12.1265 14.4178 13.9996 14.4178C15.8726 14.4178 16.4189 13.2857 16.4403 13.2382Z" fill="black"/>
<path d="M15.6404 21.6333C15.5589 21.6333 15.4808 21.6656 15.4232 21.7231C15.3656 21.7806 15.3332 21.8587 15.333 21.9401V24.681C15.333 24.7625 15.3654 24.8407 15.423 24.8984C15.4807 24.956 15.5588 24.9884 15.6404 24.9884C15.7219 24.9884 15.8 24.956 15.8577 24.8984C15.9153 24.8407 15.9477 24.7625 15.9477 24.681V21.9401C15.9475 21.8587 15.9151 21.7806 15.8575 21.7231C15.7999 21.6656 15.7218 21.6333 15.6404 21.6333Z" fill="black"/>
<path d="M18.0541 21.6333C17.2961 21.6333 16.6787 22.3858 16.6787 23.3106C16.6787 24.2353 17.2961 24.9878 18.0541 24.9878C18.8121 24.9878 19.4295 24.2353 19.4295 23.3106C19.4295 22.3858 18.8126 21.6333 18.0541 21.6333ZM18.0541 24.3737C17.6412 24.3737 17.2929 23.887 17.2929 23.3106C17.2929 22.7342 17.6412 22.2474 18.0541 22.2474C18.467 22.2474 18.8154 22.7342 18.8154 23.3106C18.8154 23.887 18.467 24.3737 18.0541 24.3737Z" fill="black"/>
</svg>
