<svg width="29" height="28" viewBox="0 0 29 28" fill="none" xmlns="http://www.w3.org/2000/svg">
<path d="M14.2002 10C14.9913 10 15.7647 10.2346 16.4225 10.6741C17.0803 11.1136 17.593 11.7384 17.8957 12.4693C18.1985 13.2002 18.2777 14.0044 18.1233 14.7804C17.969 15.5563 17.588 16.269 17.0286 16.8284C16.4692 17.3878 15.7565 17.7688 14.9806 17.9231C14.2046 18.0775 13.4004 17.9983 12.6695 17.6955C11.9386 17.3928 11.3138 16.8801 10.8743 16.2223C10.4348 15.5645 10.2002 14.7911 10.2002 14C10.2002 12.9391 10.6216 11.9217 11.3718 11.1716C12.1219 10.4214 13.1393 10 14.2002 10ZM14.2002 17.04C14.8014 17.04 15.3892 16.8617 15.8891 16.5277C16.3891 16.1936 16.7787 15.7188 17.0088 15.1634C17.2389 14.6079 17.2991 13.9966 17.1818 13.4069C17.0645 12.8172 16.775 12.2755 16.3498 11.8504C15.9246 11.4252 15.383 11.1357 14.7933 11.0184C14.2036 10.9011 13.5923 10.9613 13.0368 11.1914C12.4813 11.4215 12.0066 11.8111 11.6725 12.3111C11.3385 12.811 11.1602 13.3987 11.1602 14C11.1602 14.8063 11.4805 15.5795 12.0506 16.1496C12.6207 16.7197 13.3939 17.04 14.2002 17.04Z" fill="black"/>
<path d="M5.29395 11.5H6.68926C6.72175 11.4998 6.75335 11.4894 6.77968 11.4704C6.806 11.4513 6.82574 11.4245 6.83613 11.3938C6.92694 11.1358 7.03125 10.8829 7.14863 10.6359C7.16329 10.6068 7.16845 10.5738 7.16341 10.5416C7.15837 10.5094 7.14336 10.4795 7.12051 10.4563L6.13457 9.46875C6.03299 9.36718 5.95242 9.24661 5.89745 9.1139C5.84247 8.98119 5.81418 8.83895 5.81418 8.69531C5.81418 8.55167 5.84247 8.40943 5.89745 8.27673C5.95242 8.14402 6.03299 8.02344 6.13457 7.92188L8.12363 5.93438C8.2252 5.8328 8.34578 5.75222 8.47848 5.69725C8.61119 5.64228 8.75343 5.61398 8.89707 5.61398C9.04071 5.61398 9.18295 5.64228 9.31566 5.69725C9.44836 5.75222 9.56894 5.8328 9.67051 5.93438L10.6564 6.92031C10.6797 6.94317 10.7096 6.95817 10.7418 6.96321C10.774 6.96826 10.807 6.96309 10.8361 6.94844C11.0831 6.83102 11.336 6.72671 11.5939 6.63594C11.6247 6.62554 11.6515 6.60581 11.6705 6.57948C11.6896 6.55316 11.7 6.52155 11.7002 6.48906V5.09375C11.7002 4.80367 11.8154 4.52547 12.0205 4.32035C12.2257 4.11523 12.5039 4 12.7939 4H15.6064C15.8965 4 16.1747 4.11523 16.3798 4.32035C16.585 4.52547 16.7002 4.80367 16.7002 5.09375V6.48906C16.7004 6.52155 16.7108 6.55316 16.7298 6.57948C16.7489 6.60581 16.7757 6.62554 16.8064 6.63594C17.0644 6.72674 17.3173 6.83106 17.5643 6.94844C17.5934 6.96309 17.6264 6.96826 17.6586 6.96321C17.6908 6.95817 17.7207 6.94317 17.7439 6.92031L18.7314 5.93438C18.833 5.8328 18.9536 5.75222 19.0863 5.69725C19.219 5.64228 19.3612 5.61398 19.5049 5.61398C19.6485 5.61398 19.7908 5.64228 19.9235 5.69725C20.0562 5.75222 20.1768 5.8328 20.2783 5.93438L22.2658 7.92344C22.3674 8.025 22.448 8.14558 22.5029 8.27829C22.5579 8.411 22.5862 8.55323 22.5862 8.69688C22.5862 8.84052 22.5579 8.98275 22.5029 9.11546C22.448 9.24817 22.3674 9.36875 22.2658 9.47031L21.2799 10.4563C21.257 10.4795 21.242 10.5094 21.237 10.5416C21.2319 10.5738 21.2371 10.6068 21.2518 10.6359C21.3692 10.8829 21.4735 11.1358 21.5643 11.3938C21.5747 11.4245 21.5944 11.4513 21.6207 11.4704C21.647 11.4894 21.6786 11.4998 21.7111 11.5H23.1064C23.3965 11.5 23.6747 11.6152 23.8798 11.8204C24.085 12.0255 24.2002 12.3037 24.2002 12.5938V15.4062C24.2002 15.6963 24.085 15.9745 23.8798 16.1796C23.6747 16.3848 23.3965 16.5 23.1064 16.5H21.7111C21.6786 16.5002 21.647 16.5106 21.6207 16.5296C21.5944 16.5487 21.5747 16.5755 21.5643 16.6062C21.4735 16.8642 21.3691 17.1171 21.2518 17.3641C21.2371 17.3932 21.2319 17.4262 21.237 17.4584C21.242 17.4906 21.257 17.5205 21.2799 17.5437L22.2658 18.5312C22.3674 18.6328 22.448 18.7534 22.5029 18.8861C22.5579 19.0188 22.5862 19.161 22.5862 19.3047C22.5862 19.4483 22.5579 19.5906 22.5029 19.7233C22.448 19.856 22.3674 19.9766 22.2658 20.0781L20.2768 22.0672C20.1752 22.1688 20.0546 22.2493 19.9219 22.3043C19.7892 22.3593 19.647 22.3876 19.5033 22.3876C19.3597 22.3876 19.2174 22.3593 19.0847 22.3043C18.952 22.2493 18.8314 22.1688 18.7299 22.0672L17.7439 21.0812C17.7207 21.0584 17.6908 21.0434 17.6586 21.0383C17.6264 21.0333 17.5934 21.0385 17.5643 21.0531C17.3173 21.1705 17.0644 21.2749 16.8064 21.3656C16.7757 21.376 16.7489 21.3958 16.7298 21.4221C16.7108 21.4484 16.7004 21.48 16.7002 21.5125V22.9062C16.7002 23.1963 16.585 23.4745 16.3798 23.6796C16.1747 23.8848 15.8965 24 15.6064 24H12.7939C12.5039 24 12.2257 23.8848 12.0205 23.6796C11.8154 23.4745 11.7002 23.1963 11.7002 22.9062V21.5109C11.7 21.4784 11.6896 21.4468 11.6705 21.4205C11.6515 21.3942 11.6247 21.3745 11.5939 21.3641C11.336 21.2733 11.0831 21.1689 10.8361 21.0516C10.807 21.0369 10.774 21.0317 10.7418 21.0368C10.7096 21.0418 10.6797 21.0568 10.6564 21.0797L9.66895 22.0656C9.56738 22.1672 9.4468 22.2478 9.31409 22.3027C9.18139 22.3577 9.03915 22.386 8.89551 22.386C8.75187 22.386 8.60963 22.3577 8.47692 22.3027C8.34421 22.2478 8.22364 22.1672 8.12207 22.0656L6.13301 20.0766C6.03143 19.975 5.95086 19.8544 5.89588 19.7217C5.84091 19.589 5.81262 19.4468 5.81262 19.3031C5.81262 19.1595 5.84091 19.0172 5.89588 18.8845C5.95086 18.7518 6.03143 18.6313 6.13301 18.5297L7.11895 17.5437C7.1418 17.5205 7.1568 17.4906 7.16185 17.4584C7.16689 17.4262 7.16172 17.3932 7.14707 17.3641C7.02965 17.1171 6.92534 16.8642 6.83457 16.6062C6.82417 16.5755 6.80444 16.5487 6.77812 16.5296C6.75179 16.5106 6.72018 16.5002 6.68769 16.5H5.29395C5.00386 16.5 4.72567 16.3848 4.52055 16.1796C4.31543 15.9745 4.2002 15.6963 4.2002 15.4062V12.5938C4.2002 12.3037 4.31543 12.0255 4.52055 11.8204C4.72567 11.6152 5.00386 11.5 5.29395 11.5ZM5.1377 15.4062C5.1377 15.4477 5.15416 15.4874 5.18346 15.5167C5.21276 15.546 5.2525 15.5625 5.29395 15.5625H6.68926C6.91589 15.5628 7.13684 15.6334 7.32158 15.7647C7.50632 15.896 7.64572 16.0814 7.72051 16.2953C7.80046 16.5219 7.89225 16.744 7.99551 16.9609C8.09451 17.1654 8.1274 17.3956 8.0896 17.6196C8.0518 17.8436 7.94519 18.0503 7.78457 18.2109L6.79863 19.1969C6.76953 19.2262 6.7532 19.2658 6.7532 19.307C6.7532 19.3483 6.76953 19.3879 6.79863 19.4172L8.78613 21.4031C8.81541 21.4322 8.85501 21.4486 8.89629 21.4486C8.93757 21.4486 8.97717 21.4322 9.00645 21.4031L9.99238 20.4172C10.153 20.2566 10.3597 20.15 10.5837 20.1122C10.8077 20.0744 11.0379 20.1072 11.2424 20.2062C11.4598 20.3096 11.6825 20.4014 11.9096 20.4813C12.1232 20.5563 12.3083 20.6958 12.4393 20.8805C12.5703 21.0652 12.6407 21.2861 12.6408 21.5125V22.9062C12.6408 22.9477 12.6573 22.9874 12.6866 23.0167C12.7159 23.046 12.7556 23.0625 12.7971 23.0625H15.6064C15.6479 23.0625 15.6876 23.046 15.7169 23.0167C15.7462 22.9874 15.7627 22.9477 15.7627 22.9062V21.5109C15.7629 21.2843 15.8336 21.0634 15.9649 20.8786C16.0962 20.6939 16.2816 20.5545 16.4955 20.4797C16.722 20.3997 16.9442 20.3079 17.1611 20.2047C17.3656 20.1057 17.5958 20.0728 17.8198 20.1106C18.0438 20.1484 18.2505 20.255 18.4111 20.4156L19.3971 21.4016C19.4263 21.4307 19.4659 21.447 19.5072 21.447C19.5485 21.447 19.5881 21.4307 19.6174 21.4016L21.6033 19.4141C21.6324 19.3848 21.6488 19.3452 21.6488 19.3039C21.6488 19.2626 21.6324 19.223 21.6033 19.1937L20.6174 18.2078C20.4568 18.0472 20.3502 17.8405 20.3124 17.6165C20.2746 17.3925 20.3074 17.1623 20.4064 16.9578C20.5098 16.7404 20.6016 16.5177 20.6814 16.2906C20.7569 16.0778 20.8964 15.8936 21.0808 15.7632C21.2651 15.6328 21.4853 15.5627 21.7111 15.5625H23.1064C23.1479 15.5625 23.1876 15.546 23.2169 15.5167C23.2462 15.4874 23.2627 15.4477 23.2627 15.4062V12.5938C23.2627 12.5523 23.2462 12.5126 23.2169 12.4833C23.1876 12.454 23.1479 12.4375 23.1064 12.4375H21.7111C21.4845 12.4372 21.2635 12.3666 21.0788 12.2353C20.8941 12.104 20.7547 11.9186 20.6799 11.7047C20.5999 11.4782 20.5081 11.256 20.4049 11.0391C20.3059 10.8346 20.273 10.6044 20.3108 10.3804C20.3486 10.1564 20.4552 9.94971 20.6158 9.78906L21.6018 8.80312C21.6309 8.77385 21.6472 8.73425 21.6472 8.69297C21.6472 8.65169 21.6309 8.61209 21.6018 8.58281L19.6143 6.59688C19.585 6.56777 19.5454 6.55144 19.5041 6.55144C19.4628 6.55144 19.4232 6.56777 19.3939 6.59688L18.408 7.58281C18.2474 7.74343 18.0407 7.85004 17.8167 7.88784C17.5927 7.92564 17.3625 7.89276 17.158 7.79375C16.9406 7.69043 16.7179 7.59864 16.4908 7.51875C16.278 7.44327 16.0938 7.30377 15.9634 7.11941C15.833 6.93505 15.7629 6.71486 15.7627 6.48906V5.09375C15.7627 5.05231 15.7462 5.01257 15.7169 4.98326C15.6876 4.95396 15.6479 4.9375 15.6064 4.9375H12.7939C12.7525 4.9375 12.7128 4.95396 12.6835 4.98326C12.6542 5.01257 12.6377 5.05231 12.6377 5.09375V6.48906C12.6374 6.71569 12.5668 6.93665 12.4355 7.12139C12.3042 7.30613 12.1188 7.44552 11.9049 7.52031C11.6783 7.60026 11.4562 7.69205 11.2393 7.79531C11.0348 7.89432 10.8046 7.9272 10.5806 7.8894C10.3566 7.8516 10.1499 7.74499 9.98926 7.58438L9.00332 6.59844C8.97404 6.56934 8.93444 6.553 8.89316 6.553C8.85189 6.553 8.81228 6.56934 8.78301 6.59844L6.79395 8.5875C6.76484 8.61678 6.74851 8.65638 6.74851 8.69766C6.74851 8.73894 6.76484 8.77854 6.79395 8.80781L7.77988 9.79375C7.9405 9.9544 8.04711 10.1611 8.08491 10.3851C8.12271 10.6091 8.08982 10.8393 7.99082 11.0438C7.8875 11.2612 7.79571 11.4839 7.71582 11.7109C7.64077 11.9246 7.50126 12.1097 7.31655 12.2406C7.13183 12.3716 6.91101 12.442 6.68457 12.4422H5.29395C5.2525 12.4422 5.21276 12.4586 5.18346 12.488C5.15416 12.5173 5.1377 12.557 5.1377 12.5984V15.4062Z" fill="black"/>
</svg>
